<svg xmlns="http://www.w3.org/2000/svg" xmlns:xlink="http://www.w3.org/1999/xlink" width="500" zoomAndPan="magnify" viewBox="0 0 375 374.999991" height="500" preserveAspectRatio="xMidYMid meet" version="1.0"><defs><g/></defs><g fill="#000000" fill-opacity="1"><g transform="translate(201.376119, 274.178996)"><g><path d="M 160.53125 -13.921875 L 164.890625 -4.375 L 104.28125 31.390625 C 97 31.390625 89.988281 30.160156 83.25 27.703125 C 76.519531 25.253906 69.96875 22.617188 63.59375 19.796875 C 57.226562 16.972656 50.90625 14.878906 44.625 13.515625 C 38.351562 12.148438 31.941406 12.554688 25.390625 14.734375 L 19.921875 5.734375 L 46.6875 -10.921875 C 39.40625 -16.566406 32.53125 -23.570312 26.0625 -31.9375 C 19.601562 -40.3125 14.097656 -49.457031 9.546875 -59.375 C 5.003906 -69.289062 2.003906 -79.4375 0.546875 -89.8125 C -0.910156 -100.1875 -0.320312 -110.195312 2.3125 -119.84375 C 4.957031 -129.488281 10.191406 -138.226562 18.015625 -146.0625 L 83.8125 -200.109375 C 95.457031 -200.109375 106.007812 -197.738281 115.46875 -193 C 124.9375 -188.269531 133.128906 -181.851562 140.046875 -173.75 C 146.960938 -165.65625 152.332031 -156.601562 156.15625 -146.59375 C 159.976562 -136.59375 161.976562 -126.265625 162.15625 -115.609375 C 162.34375 -104.960938 160.523438 -94.679688 156.703125 -84.765625 C 152.878906 -74.847656 146.78125 -65.976562 138.40625 -58.15625 L 93.359375 -21.84375 C 98.273438 -19.65625 103.050781 -17.332031 107.6875 -14.875 C 112.332031 -12.414062 117.203125 -10.367188 122.296875 -8.734375 C 127.398438 -7.097656 133.046875 -6.550781 139.234375 -7.09375 C 145.421875 -7.644531 152.519531 -9.921875 160.53125 -13.921875 Z M 56.515625 -158.609375 C 51.773438 -153.878906 48.675781 -147.828125 47.21875 -140.453125 C 45.769531 -133.085938 45.679688 -125.21875 46.953125 -116.84375 C 48.222656 -108.46875 50.585938 -100.1875 54.046875 -92 C 57.503906 -83.8125 61.828125 -76.347656 67.015625 -69.609375 C 72.203125 -62.878906 77.976562 -57.46875 84.34375 -53.375 C 90.71875 -49.28125 97.363281 -47.234375 104.28125 -47.234375 C 108.289062 -54.328125 110.835938 -62.648438 111.921875 -72.203125 C 113.015625 -81.765625 112.695312 -91.59375 110.96875 -101.6875 C 109.238281 -111.789062 106.097656 -121.117188 101.546875 -129.671875 C 97.003906 -138.222656 90.957031 -145.179688 83.40625 -150.546875 C 75.851562 -155.921875 66.890625 -158.609375 56.515625 -158.609375 Z M 56.515625 -158.609375 "/></g></g></g><g fill="#000000" fill-opacity="1"><g transform="translate(24.534737, 285.945553)"><g><path d="M 164.078125 -195.734375 C 167.898438 -191.921875 170.035156 -186.328125 170.484375 -178.953125 C 170.941406 -171.578125 170.210938 -163.113281 168.296875 -153.5625 C 166.390625 -144.007812 163.753906 -134.132812 160.390625 -123.9375 C 157.023438 -113.75 153.382812 -103.785156 149.46875 -94.046875 C 145.550781 -84.304688 141.816406 -75.476562 138.265625 -67.5625 C 134.722656 -59.644531 131.8125 -53.363281 129.53125 -48.71875 C 127.257812 -44.082031 126.125 -41.765625 126.125 -41.765625 L 74.796875 0 C 70.253906 0 66.070312 -2.5 62.25 -7.5 C 58.425781 -12.507812 54.875 -19.195312 51.59375 -27.5625 C 48.320312 -35.9375 45.140625 -45.175781 42.046875 -55.28125 C 38.953125 -65.382812 35.898438 -75.710938 32.890625 -86.265625 C 29.890625 -96.828125 26.707031 -106.703125 23.34375 -115.890625 C 19.976562 -125.078125 16.425781 -132.945312 12.6875 -139.5 C 8.957031 -146.050781 4.816406 -150.421875 0.265625 -152.609375 C -4.273438 -154.796875 -9.367188 -154.066406 -15.015625 -150.421875 L -19.65625 -159.15625 L 29.484375 -200.109375 C 34.765625 -200.835938 39.585938 -198.515625 43.953125 -193.140625 C 48.316406 -187.773438 52.410156 -180.453125 56.234375 -171.171875 C 60.054688 -161.890625 63.742188 -151.601562 67.296875 -140.3125 C 70.847656 -129.03125 74.257812 -117.65625 77.53125 -106.1875 C 80.8125 -94.726562 84.085938 -84.265625 87.359375 -74.796875 C 90.640625 -65.335938 94.097656 -57.785156 97.734375 -52.140625 C 102.285156 -63.785156 106.515625 -75.566406 110.421875 -87.484375 C 114.335938 -99.410156 117.660156 -110.601562 120.390625 -121.0625 C 123.117188 -131.53125 124.847656 -140.453125 125.578125 -147.828125 C 126.304688 -155.203125 125.757812 -160.070312 123.9375 -162.4375 C 119.9375 -167.894531 114.929688 -170.625 108.921875 -170.625 C 102.921875 -170.625 94.550781 -167.257812 83.8125 -160.53125 L 78.078125 -170.359375 C 84.628906 -176.546875 91.726562 -182.226562 99.375 -187.40625 C 107.019531 -192.59375 114.753906 -196.6875 122.578125 -199.6875 C 130.398438 -202.695312 137.90625 -204.019531 145.09375 -203.65625 C 152.289062 -203.289062 158.617188 -200.648438 164.078125 -195.734375 Z M 164.078125 -195.734375 "/></g></g></g></svg>