<svg xmlns="http://www.w3.org/2000/svg" xmlns:xlink="http://www.w3.org/1999/xlink" width="48" zoomAndPan="magnify" viewBox="0 0 36 36.000001" height="48" preserveAspectRatio="xMidYMid meet" version="1.0"><defs><g/><clipPath id="bad7ab7bf3"><path d="M 0.488281 7 L 19 7 L 19 27 L 0.488281 27 Z M 0.488281 7 " clip-rule="nonzero"/></clipPath></defs><g fill="#ffffff" fill-opacity="1"><g transform="translate(19.296103, 25.609801)"><g><path d="M 15 -1.296875 L 15.40625 -0.40625 L 9.734375 2.9375 C 9.054688 2.9375 8.398438 2.820312 7.765625 2.59375 C 7.140625 2.363281 6.53125 2.113281 5.9375 1.84375 C 5.34375 1.582031 4.753906 1.390625 4.171875 1.265625 C 3.585938 1.140625 2.988281 1.175781 2.375 1.375 L 1.859375 0.53125 L 4.359375 -1.015625 C 3.679688 -1.546875 3.039062 -2.203125 2.4375 -2.984375 C 1.832031 -3.765625 1.316406 -4.617188 0.890625 -5.546875 C 0.460938 -6.472656 0.179688 -7.421875 0.046875 -8.390625 C -0.0859375 -9.359375 -0.03125 -10.289062 0.21875 -11.1875 C 0.46875 -12.09375 0.957031 -12.910156 1.6875 -13.640625 L 7.828125 -18.6875 C 8.910156 -18.6875 9.894531 -18.460938 10.78125 -18.015625 C 11.664062 -17.578125 12.429688 -16.976562 13.078125 -16.21875 C 13.722656 -15.46875 14.222656 -14.625 14.578125 -13.6875 C 14.941406 -12.757812 15.128906 -11.796875 15.140625 -10.796875 C 15.160156 -9.804688 14.988281 -8.847656 14.625 -7.921875 C 14.269531 -6.992188 13.703125 -6.164062 12.921875 -5.4375 L 8.71875 -2.046875 C 9.175781 -1.835938 9.617188 -1.617188 10.046875 -1.390625 C 10.484375 -1.160156 10.941406 -0.96875 11.421875 -0.8125 C 11.898438 -0.664062 12.425781 -0.613281 13 -0.65625 C 13.582031 -0.707031 14.25 -0.921875 15 -1.296875 Z M 5.28125 -14.8125 C 4.832031 -14.375 4.539062 -13.8125 4.40625 -13.125 C 4.269531 -12.4375 4.257812 -11.695312 4.375 -10.90625 C 4.5 -10.125 4.722656 -9.351562 5.046875 -8.59375 C 5.367188 -7.832031 5.769531 -7.132812 6.25 -6.5 C 6.738281 -5.875 7.28125 -5.367188 7.875 -4.984375 C 8.46875 -4.597656 9.085938 -4.40625 9.734375 -4.40625 C 10.109375 -5.070312 10.347656 -5.847656 10.453125 -6.734375 C 10.554688 -7.628906 10.523438 -8.546875 10.359375 -9.484375 C 10.203125 -10.429688 9.910156 -11.304688 9.484375 -12.109375 C 9.054688 -12.910156 8.488281 -13.5625 7.78125 -14.0625 C 7.082031 -14.5625 6.25 -14.8125 5.28125 -14.8125 Z M 5.28125 -14.8125 "/></g></g></g><g clip-path="url(#bad7ab7bf3)"><g fill="#ffffff" fill-opacity="1"><g transform="translate(2.778162, 26.708861)"><g><path d="M 15.328125 -18.28125 C 15.679688 -17.925781 15.878906 -17.40625 15.921875 -16.71875 C 15.960938 -16.03125 15.894531 -15.238281 15.71875 -14.34375 C 15.539062 -13.445312 15.296875 -12.523438 14.984375 -11.578125 C 14.671875 -10.628906 14.328125 -9.695312 13.953125 -8.78125 C 13.585938 -7.875 13.238281 -7.050781 12.90625 -6.3125 C 12.582031 -5.570312 12.3125 -4.984375 12.09375 -4.546875 C 11.882812 -4.117188 11.78125 -3.90625 11.78125 -3.90625 L 6.984375 0 C 6.554688 0 6.164062 -0.234375 5.8125 -0.703125 C 5.457031 -1.171875 5.125 -1.796875 4.8125 -2.578125 C 4.507812 -3.359375 4.210938 -4.21875 3.921875 -5.15625 C 3.640625 -6.101562 3.359375 -7.066406 3.078125 -8.046875 C 2.796875 -9.035156 2.492188 -9.957031 2.171875 -10.8125 C 1.859375 -11.675781 1.523438 -12.414062 1.171875 -13.03125 C 0.828125 -13.644531 0.441406 -14.050781 0.015625 -14.25 C -0.398438 -14.457031 -0.875 -14.390625 -1.40625 -14.046875 L -1.84375 -14.859375 L 2.75 -18.6875 C 3.25 -18.757812 3.703125 -18.539062 4.109375 -18.03125 C 4.515625 -17.53125 4.894531 -16.847656 5.25 -15.984375 C 5.601562 -15.117188 5.945312 -14.160156 6.28125 -13.109375 C 6.613281 -12.054688 6.929688 -10.992188 7.234375 -9.921875 C 7.546875 -8.847656 7.851562 -7.867188 8.15625 -6.984375 C 8.46875 -6.097656 8.789062 -5.394531 9.125 -4.875 C 9.550781 -5.957031 9.945312 -7.054688 10.3125 -8.171875 C 10.675781 -9.285156 10.984375 -10.332031 11.234375 -11.3125 C 11.492188 -12.289062 11.65625 -13.125 11.71875 -13.8125 C 11.789062 -14.5 11.742188 -14.953125 11.578125 -15.171875 C 11.203125 -15.679688 10.734375 -15.9375 10.171875 -15.9375 C 9.609375 -15.9375 8.828125 -15.625 7.828125 -15 L 7.296875 -15.90625 C 7.910156 -16.488281 8.570312 -17.019531 9.28125 -17.5 C 10 -17.988281 10.722656 -18.375 11.453125 -18.65625 C 12.179688 -18.9375 12.878906 -19.054688 13.546875 -19.015625 C 14.222656 -18.984375 14.816406 -18.738281 15.328125 -18.28125 Z M 15.328125 -18.28125 "/></g></g></g></g></svg>